<mxGraphModel dx="813" dy="455" grid="1" gridSize="10" guides="1" tooltips="1" connect="1" arrows="1" fold="1" page="1" pageScale="1" pageWidth="827" pageHeight="1169" math="0" shadow="0">
  <root>
    <mxCell id="0" />
    <mxCell id="1" parent="0" />
    <mxCell id="33TAIkWnH2txWC_OPkWc-2" value="api" style="rounded=0;whiteSpace=wrap;html=1;" vertex="1" parent="1">
      <mxGeometry x="340" y="480" width="340" height="30" as="geometry" />
    </mxCell>
    <mxCell id="33TAIkWnH2txWC_OPkWc-3" value="result" style="endArrow=classic;html=1;entryX=0;entryY=0;entryDx=0;entryDy=0;exitX=0;exitY=1;exitDx=0;exitDy=0;" edge="1" parent="1" source="33TAIkWnH2txWC_OPkWc-1" target="33TAIkWnH2txWC_OPkWc-2">
      <mxGeometry width="50" height="50" relative="1" as="geometry">
        <mxPoint x="390" y="430" as="sourcePoint" />
        <mxPoint x="440" y="380" as="targetPoint" />
      </mxGeometry>
    </mxCell>
    <mxCell id="33TAIkWnH2txWC_OPkWc-4" value="load" style="endArrow=classic;html=1;entryX=0;entryY=0;entryDx=0;entryDy=0;" edge="1" parent="1">
      <mxGeometry width="50" height="50" relative="1" as="geometry">
        <mxPoint x="370" y="261" as="sourcePoint" />
        <mxPoint x="370" y="480" as="targetPoint" />
      </mxGeometry>
    </mxCell>
    <mxCell id="33TAIkWnH2txWC_OPkWc-1" value="server" style="rounded=0;whiteSpace=wrap;html=1;" vertex="1" parent="1">
      <mxGeometry x="340" y="150" width="340" height="110" as="geometry" />
    </mxCell>
    <mxCell id="33TAIkWnH2txWC_OPkWc-5" value="error" style="endArrow=classic;html=1;entryX=0;entryY=0;entryDx=0;entryDy=0;" edge="1" parent="1">
      <mxGeometry width="50" height="50" relative="1" as="geometry">
        <mxPoint x="400" y="260" as="sourcePoint" />
        <mxPoint x="400" y="480" as="targetPoint" />
      </mxGeometry>
    </mxCell>
    <mxCell id="33TAIkWnH2txWC_OPkWc-6" value="backup" style="endArrow=classic;html=1;entryX=0;entryY=0;entryDx=0;entryDy=0;exitX=0.301;exitY=0.999;exitDx=0;exitDy=0;exitPerimeter=0;" edge="1" parent="1" source="33TAIkWnH2txWC_OPkWc-1">
      <mxGeometry width="50" height="50" relative="1" as="geometry">
        <mxPoint x="440" y="247.01999999999998" as="sourcePoint" />
        <mxPoint x="440" y="480" as="targetPoint" />
      </mxGeometry>
    </mxCell>
    <mxCell id="33TAIkWnH2txWC_OPkWc-7" value="restore" style="endArrow=classic;html=1;entryX=0;entryY=0;entryDx=0;entryDy=0;" edge="1" parent="1">
      <mxGeometry width="50" height="50" relative="1" as="geometry">
        <mxPoint x="480" y="260" as="sourcePoint" />
        <mxPoint x="480" y="480" as="targetPoint" />
      </mxGeometry>
    </mxCell>
    <mxCell id="33TAIkWnH2txWC_OPkWc-9" value="query&lt;br&gt;" style="endArrow=classic;html=1;entryX=0.533;entryY=0.999;entryDx=0;entryDy=0;entryPerimeter=0;exitX=0.525;exitY=0.004;exitDx=0;exitDy=0;exitPerimeter=0;" edge="1" parent="1" source="33TAIkWnH2txWC_OPkWc-2" target="33TAIkWnH2txWC_OPkWc-1">
      <mxGeometry width="50" height="50" relative="1" as="geometry">
        <mxPoint x="460" y="400" as="sourcePoint" />
        <mxPoint x="510" y="350" as="targetPoint" />
      </mxGeometry>
    </mxCell>
    <mxCell id="33TAIkWnH2txWC_OPkWc-10" value="updateDB" style="endArrow=classic;html=1;exitX=0.779;exitY=0;exitDx=0;exitDy=0;exitPerimeter=0;" edge="1" parent="1">
      <mxGeometry width="50" height="50" relative="1" as="geometry">
        <mxPoint x="570.0000000000001" y="480" as="sourcePoint" />
        <mxPoint x="570" y="261" as="targetPoint" />
      </mxGeometry>
    </mxCell>
    <mxCell id="33TAIkWnH2txWC_OPkWc-11" value="drop" style="endArrow=classic;html=1;entryX=0.779;entryY=1.011;entryDx=0;entryDy=0;entryPerimeter=0;exitX=0.779;exitY=0;exitDx=0;exitDy=0;exitPerimeter=0;" edge="1" parent="1">
      <mxGeometry width="50" height="50" relative="1" as="geometry">
        <mxPoint x="610" y="480" as="sourcePoint" />
        <mxPoint x="610" y="261.21000000000004" as="targetPoint" />
      </mxGeometry>
    </mxCell>
    <mxCell id="33TAIkWnH2txWC_OPkWc-12" value="restore" style="endArrow=classic;html=1;entryX=0.779;entryY=1.011;entryDx=0;entryDy=0;entryPerimeter=0;exitX=0.779;exitY=0;exitDx=0;exitDy=0;exitPerimeter=0;" edge="1" parent="1">
      <mxGeometry width="50" height="50" relative="1" as="geometry">
        <mxPoint x="660" y="478.79" as="sourcePoint" />
        <mxPoint x="660" y="260.00000000000006" as="targetPoint" />
      </mxGeometry>
    </mxCell>
  </root>
</mxGraphModel>
